<svg xmlns="http://www.w3.org/2000/svg" width="26.755" height="26.256" viewBox="0 0 26.755 26.256">
  <g id="чайник" transform="translate(0 0.007)">
    <path id="Path_90" data-name="Path 90" d="M22.822,26.256a.461.461,0,0,0,.442-.582,2.573,2.573,0,0,0-2.489-1.92H4.732a2.574,2.574,0,0,0-2.489,1.919.461.461,0,0,0,.443.583Z" transform="translate(-1 -0.507)" fill="none" stroke="#858585" stroke-miterlimit="10" stroke-width="1"/>
    <path id="Path_91" data-name="Path 91" d="M20.32,23.752a2.245,2.245,0,0,0,.282-.132c4.208-2.447-.785-16.263-1.9-19.179a.841.841,0,0,0-.79-.543H7.592a.841.841,0,0,0-.79.543C5.688,7.357.7,21.173,4.908,23.62a2.212,2.212,0,0,0,.278.132" transform="translate(-1 -0.507)" fill="none" stroke="#858585" stroke-miterlimit="10" stroke-width="1"/>
    <path id="Path_92" data-name="Path 92" d="M7.5,3.907a.259.259,0,0,1,.055-.256c4.632-5.189,8.913-1.378,10.187,0a.266.266,0,0,1,.064.247" transform="translate(-1 -0.507)" fill="none" stroke="#858585" stroke-miterlimit="10" stroke-width="1"/>
    <path id="Path_93" data-name="Path 93" d="M4.728,10.7,1.921,6.38H6.1" transform="translate(-1 -0.507)" fill="none" stroke="#858585" stroke-miterlimit="10" stroke-width="1"/>
    <path id="Path_94" data-name="Path 94" d="M22.261,19.279h1.165a1.618,1.618,0,0,0,1.619-1.617V8.093a1.618,1.618,0,0,0-1.617-1.619H22.1a1.618,1.618,0,0,0-1.619,1.617V9.672" transform="translate(-1 -0.507)" fill="none" stroke="#858585" stroke-miterlimit="10" stroke-width="1"/>
    <path id="Path_95" data-name="Path 95" d="M22.088,21.193h1.451a3.715,3.715,0,0,0,3.716-3.714V8.13A3.715,3.715,0,0,0,23.54,4.414H18.7" transform="translate(-1 -0.507)" fill="none" stroke="#858585" stroke-miterlimit="10" stroke-width="1"/>
  </g>
</svg>
