<svg id="иконка_разделить_на_всех" data-name="иконка разделить  на всех" xmlns="http://www.w3.org/2000/svg" width="55" height="55" viewBox="0 0 55 55">
  <circle id="Ellipse_7-2" data-name="Ellipse 7-2" cx="27.5" cy="27.5" r="27.5" fill="#fff"/>
  <g id="Group_37" data-name="Group 37">
    <line id="Line_17" data-name="Line 17" y1="13.357" transform="translate(27.648 14.826)" fill="none" stroke="#20668c" stroke-linecap="round" stroke-miterlimit="10" stroke-width="1"/>
    <line id="Line_18" data-name="Line 18" x1="11.612" y1="6.602" transform="translate(27.848 28.438)" fill="none" stroke="#20668c" stroke-linecap="round" stroke-miterlimit="10" stroke-width="1"/>
    <line id="Line_19" data-name="Line 19" y1="6.602" x2="11.612" transform="translate(15.837 28.438)" fill="none" stroke="#20668c" stroke-linecap="round" stroke-miterlimit="10" stroke-width="1"/>
    <path id="Path_89" data-name="Path 89" d="M26.289,26.072a3.452,3.452,0,1,1-3.452,3.452h0a3.452,3.452,0,0,1,3.452-3.452Z" transform="translate(-7 -7)" fill="#20668c"/>
    <path id="Path_87" data-name="Path 87" d="M42.4,26.072a3.452,3.452,0,1,1-3.452,3.452h0A3.452,3.452,0,0,1,42.4,26.072Z" transform="translate(-7 -7)" fill="#20668c"/>
    <path id="Path_86" data-name="Path 86" d="M34.344,40.169a3.452,3.452,0,1,1-3.452,3.452h0a3.452,3.452,0,0,1,3.452-3.452Z" transform="translate(-7 -7)" fill="#20668c"/>
  </g>
</svg>
