<svg xmlns="http://www.w3.org/2000/svg" width="23.909" height="23.909" viewBox="0 0 23.909 23.909">
  <g id="_настройки" data-name=" настройки" transform="translate(0 -0.001)">
    <g id="Group_2" data-name="Group 2" transform="translate(0 0.001)">
      <g id="Group_1" data-name="Group 1" transform="translate(0 0)">
        <path id="Path_5" data-name="Path 5" d="M22.685,9.446l-1.678-.285a9.476,9.476,0,0,0-.674-1.628l.989-1.383a1.472,1.472,0,0,0-.16-1.9L19.673,2.758a1.466,1.466,0,0,0-1.044-.435,1.451,1.451,0,0,0-.854.275l-1.388.989A9.377,9.377,0,0,0,14.7,2.893l-.28-1.658A1.475,1.475,0,0,0,12.961,0h-2.1A1.475,1.475,0,0,0,9.4,1.235l-.29,1.7a9.242,9.242,0,0,0-1.623.684L6.113,2.628a1.475,1.475,0,0,0-1.9.16L2.717,4.276a1.478,1.478,0,0,0-.16,1.9l1,1.4a9.256,9.256,0,0,0-.664,1.633L1.234,9.5A1.475,1.475,0,0,0,0,10.954v2.1a1.475,1.475,0,0,0,1.234,1.458l1.7.29a9.242,9.242,0,0,0,.684,1.623L2.632,17.8a1.472,1.472,0,0,0,.16,1.9L4.28,21.188a1.466,1.466,0,0,0,1.044.435,1.451,1.451,0,0,0,.854-.275l1.4-1A9.448,9.448,0,0,0,9.16,21l.28,1.678A1.475,1.475,0,0,0,10.9,23.91h2.108a1.475,1.475,0,0,0,1.458-1.234L14.749,21a9.476,9.476,0,0,0,1.628-.674l1.383.989a1.466,1.466,0,0,0,.859.275h0a1.466,1.466,0,0,0,1.044-.435l1.488-1.488a1.478,1.478,0,0,0,.16-1.9l-.989-1.388A9.408,9.408,0,0,0,21,14.745l1.678-.28a1.475,1.475,0,0,0,1.234-1.458V10.9A1.458,1.458,0,0,0,22.685,9.446Zm-.115,3.561a.129.129,0,0,1-.11.13l-2.1.35a.671.671,0,0,0-.539.494,8,8,0,0,1-.869,2.093.675.675,0,0,0,.03.734l1.234,1.738a.136.136,0,0,1-.015.17L18.715,20.2a.127.127,0,0,1-.095.04.123.123,0,0,1-.075-.025l-1.733-1.234a.675.675,0,0,0-.734-.03,8,8,0,0,1-2.093.869.663.663,0,0,0-.494.539l-.355,2.1a.129.129,0,0,1-.13.11H10.9a.129.129,0,0,1-.13-.11l-.35-2.1a.671.671,0,0,0-.494-.539,8.3,8.3,0,0,1-2.048-.839.691.691,0,0,0-.34-.09.658.658,0,0,0-.39.125L5.4,20.264a.149.149,0,0,1-.075.025.134.134,0,0,1-.095-.04L3.746,18.76a.135.135,0,0,1-.015-.17L4.96,16.868a.684.684,0,0,0,.03-.739,7.92,7.92,0,0,1-.879-2.088.684.684,0,0,0-.539-.494l-2.113-.36a.129.129,0,0,1-.11-.13v-2.1a.129.129,0,0,1,.11-.13l2.083-.35a.675.675,0,0,0,.544-.5,7.987,7.987,0,0,1,.854-2.1A.667.667,0,0,0,4.9,7.148L3.661,5.4a.136.136,0,0,1,.015-.17L5.164,3.742a.127.127,0,0,1,.095-.04.123.123,0,0,1,.075.025L7.057,4.956a.684.684,0,0,0,.739.03,7.92,7.92,0,0,1,2.088-.879.684.684,0,0,0,.494-.539l.36-2.113a.129.129,0,0,1,.13-.11h2.1a.129.129,0,0,1,.13.11l.35,2.083a.675.675,0,0,0,.5.544,8.107,8.107,0,0,1,2.143.879.675.675,0,0,0,.734-.03L18.55,3.692a.149.149,0,0,1,.075-.025.134.134,0,0,1,.095.04L20.208,5.2a.135.135,0,0,1,.015.17L18.989,7.1a.675.675,0,0,0-.03.734,8,8,0,0,1,.869,2.093.663.663,0,0,0,.539.494l2.1.355a.129.129,0,0,1,.11.13v2.1Z" transform="translate(0 -0.001)" fill="#fff"/>
        <path id="Path_6" data-name="Path 6" d="M141.259,136a5.159,5.159,0,1,0,5.159,5.159A5.163,5.163,0,0,0,141.259,136Zm0,8.97a3.811,3.811,0,1,1,3.811-3.811A3.813,3.813,0,0,1,141.259,144.971Z" transform="translate(-129.302 -129.208)" fill="#fff"/>
      </g>
    </g>
  </g>
</svg>
