<svg id="иконка_статистика" data-name="иконка статистика" xmlns="http://www.w3.org/2000/svg" width="55" height="55" viewBox="0 0 55 55">
  <circle id="Ellipse_8-2" data-name="Ellipse 8-2" cx="27.5" cy="27.5" r="27.5" fill="#fff"/>
  <g id="Group_38" data-name="Group 38">
    <path id="Path_84" data-name="Path 84" d="M33.689,20.971c-8.779.678-15.147,9.948-10.709,19.415a11.4,11.4,0,0,0,5.473,5.473C37.92,50.3,47.19,43.929,47.867,35.15a.961.961,0,0,0-.891-1.027l-.069,0H35.678a.959.959,0,0,1-.959-.959V21.932a.962.962,0,0,0-.961-.963Z" transform="translate(-7 -6)" fill="none" stroke="#277fa5" stroke-width="1"/>
    <path id="Path_85" data-name="Path 85" d="M36.156,20.493V31.722a.959.959,0,0,0,.959.959H48.344a.963.963,0,0,0,.963-.963q0-.035,0-.07A13.189,13.189,0,0,0,37.188,19.532a.963.963,0,0,0-1.03.892C36.157,20.447,36.156,20.47,36.156,20.493Z" transform="translate(-7 -6)" fill="#277fa5"/>
  </g>
</svg>
