<svg xmlns="http://www.w3.org/2000/svg" width="32.259" height="25.001" viewBox="0 0 32.259 25.001">
  <g id="юзеры" transform="translate(0 0.037)">
    <path id="Path_96" data-name="Path 96" d="M15.836,11.241a11.468,11.468,0,0,1,4.2,4.291c.007-.008.007,0,.007,0a19.562,19.562,0,0,1,2.511,10.006L1.64,25.4c.042-6.391,2.792-11.845,6.652-14.062" transform="translate(-1.137 -1.146)" fill="none" stroke="#858585" stroke-miterlimit="10" stroke-width="1"/>
    <ellipse id="Ellipse_121" data-name="Ellipse 121" cx="5.751" cy="5.136" rx="5.751" ry="5.136" transform="translate(5.72 11.968) rotate(-89.624)" fill="none" stroke="#858585" stroke-miterlimit="10" stroke-width="1"/>
    <path id="Path_97" data-name="Path 97" d="M16.313,25.5l16.582.109c.034-5.176-2.182-9.6-5.326-11.331" transform="translate(-1.137 -1.146)" fill="none" stroke="#858585" stroke-miterlimit="10" stroke-width="1"/>
    <path id="Path_98" data-name="Path 98" d="M21.589,14.344a8.04,8.04,0,0,0-1.549,1.19h-.007" transform="translate(-1.137 -1.146)" fill="none" stroke="#858585" stroke-miterlimit="10" stroke-width="1"/>
    <ellipse id="Ellipse_122" data-name="Ellipse 122" cx="4.561" cy="4.074" rx="4.561" ry="4.074" transform="translate(19.314 14.606) rotate(-89.624)" fill="none" stroke="#858585" stroke-miterlimit="10" stroke-width="1"/>
  </g>
</svg>
